<svg width="104" height="87" viewBox="0 0 104 87" fill="none" xmlns="http://www.w3.org/2000/svg">
<path d="M88.9241 86.6797H103.763C103.763 68.2926 93.7123 52.197 78.6815 43.3426C93.7122 34.4883 103.763 18.3927 103.763 0.00561523H88.9238C88.9238 17.4048 76.1539 31.9604 59.3679 35.3731V0.00561523H44.5309V35.3731C27.6658 32.0199 14.9749 17.4595 14.9749 0.00561523H0.136072C0.136072 18.3927 10.1867 34.4883 25.2175 43.3426C10.1865 52.197 0.135742 68.2926 0.135742 86.6797H14.9746C14.9746 69.2258 27.6657 54.6654 44.5309 51.3122V86.6956H59.3679V51.3121C76.2331 54.6653 88.9241 69.2257 88.9241 86.6797Z" fill="url(#paint0_linear_531_4156)"/>
<path d="M88.9241 86.6797H103.763C103.763 68.2926 93.7123 52.197 78.6815 43.3426C93.7122 34.4883 103.763 18.3927 103.763 0.00561523H88.9238C88.9238 17.4048 76.1539 31.9604 59.3679 35.3731V0.00561523H44.5309V35.3731C27.6658 32.0199 14.9749 17.4595 14.9749 0.00561523H0.136072C0.136072 18.3927 10.1867 34.4883 25.2175 43.3426C10.1865 52.197 0.135742 68.2926 0.135742 86.6797H14.9746C14.9746 69.2258 27.6657 54.6654 44.5309 51.3122V86.6956H59.3679V51.3121C76.2331 54.6653 88.9241 69.2257 88.9241 86.6797Z" fill="url(#paint1_radial_531_4156)" fill-opacity="0.6"/>
<defs>
<linearGradient id="paint0_linear_531_4156" x1="2.72642" y1="1.81165" x2="79.8988" y2="104.08" gradientUnits="userSpaceOnUse">
<stop stop-color="#F6E4F0"/>
<stop offset="0.491919" stop-color="#E16766"/>
<stop offset="1" stop-color="#F756F2"/>
</linearGradient>
<radialGradient id="paint1_radial_531_4156" cx="0" cy="0" r="1" gradientTransform="matrix(-57.8585 28.5354 -34.1106 -48.4019 87.3553 -6.13492)" gradientUnits="userSpaceOnUse">
<stop stop-color="white"/>
<stop offset="1" stop-color="white" stop-opacity="0"/>
</radialGradient>
</defs>
</svg>
