<svg width="104" height="88" viewBox="0 0 104 88" fill="none" xmlns="http://www.w3.org/2000/svg">
<path d="M88.9241 87.6508H103.763C103.763 69.2638 93.7123 53.1682 78.6815 44.3138C93.7122 35.4595 103.763 19.3639 103.763 0.976807H88.9238C88.9238 18.3759 76.1539 32.9316 59.3679 36.3443V0.976807H44.5309V36.3443C27.6658 32.9911 14.9749 18.4307 14.9749 0.976807H0.136072C0.136072 19.3639 10.1867 35.4595 25.2175 44.3138C10.1865 53.1682 0.135742 69.2638 0.135742 87.6508H14.9746C14.9746 70.197 27.6657 55.6366 44.5309 52.2833V87.6667H59.3679V52.2833C76.2331 55.6365 88.9241 70.1969 88.9241 87.6508Z" fill="url(#paint0_linear_531_4203)"/>
<path d="M88.9241 87.6508H103.763C103.763 69.2638 93.7123 53.1682 78.6815 44.3138C93.7122 35.4595 103.763 19.3639 103.763 0.976807H88.9238C88.9238 18.3759 76.1539 32.9316 59.3679 36.3443V0.976807H44.5309V36.3443C27.6658 32.9911 14.9749 18.4307 14.9749 0.976807H0.136072C0.136072 19.3639 10.1867 35.4595 25.2175 44.3138C10.1865 53.1682 0.135742 69.2638 0.135742 87.6508H14.9746C14.9746 70.197 27.6657 55.6366 44.5309 52.2833V87.6667H59.3679V52.2833C76.2331 55.6365 88.9241 70.1969 88.9241 87.6508Z" fill="url(#paint1_radial_531_4203)" fill-opacity="0.6"/>
<path d="M88.9241 87.6508H103.763C103.763 69.2638 93.7123 53.1682 78.6815 44.3138C93.7122 35.4595 103.763 19.3639 103.763 0.976807H88.9238C88.9238 18.3759 76.1539 32.9316 59.3679 36.3443V0.976807H44.5309V36.3443C27.6658 32.9911 14.9749 18.4307 14.9749 0.976807H0.136072C0.136072 19.3639 10.1867 35.4595 25.2175 44.3138C10.1865 53.1682 0.135742 69.2638 0.135742 87.6508H14.9746C14.9746 70.197 27.6657 55.6366 44.5309 52.2833V87.6667H59.3679V52.2833C76.2331 55.6365 88.9241 70.1969 88.9241 87.6508Z" fill="url(#paint2_radial_531_4203)" fill-opacity="0.6"/>
<defs>
<linearGradient id="paint0_linear_531_4203" x1="13.9527" y1="16.1475" x2="79.9569" y2="95.8959" gradientUnits="userSpaceOnUse">
<stop stop-color="#E95C00"/>
<stop offset="0.451645" stop-color="#FFC548"/>
<stop offset="1" stop-color="#FEFFFA"/>
</linearGradient>
<radialGradient id="paint1_radial_531_4203" cx="0" cy="0" r="1" gradientTransform="matrix(-64.767 3.61208 -4.3178 -54.1812 90.8096 84.0547)" gradientUnits="userSpaceOnUse">
<stop stop-color="white"/>
<stop offset="1" stop-color="white" stop-opacity="0"/>
</radialGradient>
<radialGradient id="paint2_radial_531_4203" cx="0" cy="0" r="1" gradientTransform="matrix(-51.3818 42.9838 -51.3818 -42.9838 39.4277 -13.8327)" gradientUnits="userSpaceOnUse">
<stop stop-color="white"/>
<stop offset="1" stop-color="white" stop-opacity="0"/>
</radialGradient>
</defs>
</svg>
