<svg width="151" height="134" viewBox="0 0 151 134" fill="none" xmlns="http://www.w3.org/2000/svg">
<path d="M112.924 110.622H127.763C127.763 92.2352 117.712 76.1396 102.681 67.2853C117.712 58.4309 127.763 42.3353 127.763 23.9482H112.924C112.924 41.3474 100.154 55.9031 83.3679 59.3158V23.9482H68.5309V59.3158C51.6658 55.9625 38.9749 41.4021 38.9749 23.9482H24.1361C24.1361 42.3353 34.1867 58.4309 49.2175 67.2853C34.1865 76.1396 24.1357 92.2352 24.1357 110.622H38.9746C38.9746 93.1684 51.6657 78.608 68.5309 75.2548V110.638H83.3679V75.2547C100.233 78.6079 112.924 93.1684 112.924 110.622Z" fill="white"/>
<path d="M112.924 110.622H127.763C127.763 92.2352 117.712 76.1396 102.681 67.2853C117.712 58.4309 127.763 42.3353 127.763 23.9482H112.924C112.924 41.3474 100.154 55.9031 83.3679 59.3158V23.9482H68.5309V59.3158C51.6658 55.9625 38.9749 41.4021 38.9749 23.9482H24.1361C24.1361 42.3353 34.1867 58.4309 49.2175 67.2853C34.1865 76.1396 24.1357 92.2352 24.1357 110.622H38.9746C38.9746 93.1684 51.6657 78.608 68.5309 75.2548V110.638H83.3679V75.2547C100.233 78.6079 112.924 93.1684 112.924 110.622Z" fill="url(#paint0_linear_89_8029)"/>
<path d="M112.924 110.622H127.763C127.763 92.2352 117.712 76.1396 102.681 67.2853C117.712 58.4309 127.763 42.3353 127.763 23.9482H112.924C112.924 41.3474 100.154 55.9031 83.3679 59.3158V23.9482H68.5309V59.3158C51.6658 55.9625 38.9749 41.4021 38.9749 23.9482H24.1361C24.1361 42.3353 34.1867 58.4309 49.2175 67.2853C34.1865 76.1396 24.1357 92.2352 24.1357 110.622H38.9746C38.9746 93.1684 51.6657 78.608 68.5309 75.2548V110.638H83.3679V75.2547C100.233 78.6079 112.924 93.1684 112.924 110.622Z" fill="url(#paint1_radial_89_8029)" fill-opacity="0.6"/>
<g style="mix-blend-mode:color-dodge" opacity="0.5" filter="url(#filter0_f_89_8029)">
<path d="M112.924 110.622H127.763C127.763 92.2352 117.712 76.1396 102.681 67.2853C117.712 58.4309 127.763 42.3353 127.763 23.9482H112.924C112.924 41.3474 100.154 55.9031 83.3679 59.3158V23.9482H68.5309V59.3158C51.6658 55.9625 38.9749 41.4021 38.9749 23.9482H24.1361C24.1361 42.3353 34.1867 58.4309 49.2175 67.2853C34.1865 76.1396 24.1357 92.2352 24.1357 110.622H38.9746C38.9746 93.1684 51.6657 78.608 68.5309 75.2548V110.638H83.3679V75.2547C100.233 78.6079 112.924 93.1684 112.924 110.622Z" fill="white"/>
<path d="M112.924 110.622H127.763C127.763 92.2352 117.712 76.1396 102.681 67.2853C117.712 58.4309 127.763 42.3353 127.763 23.9482H112.924C112.924 41.3474 100.154 55.9031 83.3679 59.3158V23.9482H68.5309V59.3158C51.6658 55.9625 38.9749 41.4021 38.9749 23.9482H24.1361C24.1361 42.3353 34.1867 58.4309 49.2175 67.2853C34.1865 76.1396 24.1357 92.2352 24.1357 110.622H38.9746C38.9746 93.1684 51.6657 78.608 68.5309 75.2548V110.638H83.3679V75.2547C100.233 78.6079 112.924 93.1684 112.924 110.622Z" fill="url(#paint2_linear_89_8029)"/>
<path d="M112.924 110.622H127.763C127.763 92.2352 117.712 76.1396 102.681 67.2853C117.712 58.4309 127.763 42.3353 127.763 23.9482H112.924C112.924 41.3474 100.154 55.9031 83.3679 59.3158V23.9482H68.5309V59.3158C51.6658 55.9625 38.9749 41.4021 38.9749 23.9482H24.1361C24.1361 42.3353 34.1867 58.4309 49.2175 67.2853C34.1865 76.1396 24.1357 92.2352 24.1357 110.622H38.9746C38.9746 93.1684 51.6657 78.608 68.5309 75.2548V110.638H83.3679V75.2547C100.233 78.6079 112.924 93.1684 112.924 110.622Z" fill="url(#paint3_radial_89_8029)" fill-opacity="0.6"/>
</g>
<defs>
<filter id="filter0_f_89_8029" x="0.807661" y="0.750288" width="150.75" height="133.356" filterUnits="userSpaceOnUse" color-interpolation-filters="sRGB">
<feFlood flood-opacity="0" result="BackgroundImageFix"/>
<feBlend mode="normal" in="SourceGraphic" in2="BackgroundImageFix" result="shape"/>
<feGaussianBlur stdDeviation="11.5962" result="effect1_foregroundBlur_89_8029"/>
</filter>
<linearGradient id="paint0_linear_89_8029" x1="36.623" y1="23.5473" x2="140.189" y2="95.947" gradientUnits="userSpaceOnUse">
<stop stop-color="#23D3FF"/>
<stop offset="0.380795" stop-color="#FDF5E0"/>
<stop offset="0.682258" stop-color="#FFC78C"/>
<stop offset="1" stop-color="#FF1B07"/>
</linearGradient>
<radialGradient id="paint1_radial_89_8029" cx="0" cy="0" r="1" gradientTransform="matrix(27.6339 -37.5656 44.9051 23.1173 31.0442 110.638)" gradientUnits="userSpaceOnUse">
<stop stop-color="white"/>
<stop offset="1" stop-color="white" stop-opacity="0"/>
</radialGradient>
<linearGradient id="paint2_linear_89_8029" x1="36.623" y1="23.5473" x2="171.849" y2="121.752" gradientUnits="userSpaceOnUse">
<stop stop-color="#23D3FF"/>
<stop offset="0.380795" stop-color="#FDF5E0"/>
<stop offset="0.682258" stop-color="#FFC78C"/>
<stop offset="1" stop-color="#FF1B07"/>
</linearGradient>
<radialGradient id="paint3_radial_89_8029" cx="0" cy="0" r="1" gradientTransform="matrix(27.6339 -37.5656 44.9051 23.1173 31.0442 110.638)" gradientUnits="userSpaceOnUse">
<stop stop-color="white"/>
<stop offset="1" stop-color="white" stop-opacity="0"/>
</radialGradient>
</defs>
</svg>
