<svg width="327" height="327" viewBox="-16.5 -50 427 427" fill="none" xmlns="http://www.w3.org/2000/svg">
    <g mask="url(#mask0_27_2)">
        <path
            d="M132.025 202.15L111.687 214.376L38.6653 258.138C34.0677 260.843 31.255 265.819 31.255 271.175V311.854C31.255 320.238 38.1244 327.054 46.5084 327.054H87.2924C92.6473 327.054 97.6236 324.241 100.382 319.697L172.863 199.662L173.133 199.337L176.758 193.279L179.624 186.896C182.545 179.431 184.114 171.641 184.114 163.527C184.114 155.413 182.653 147.677 179.516 139.888L176.703 133.775L100.382 7.35682C97.6236 2.75881 92.6473 0 87.2924 0H46.5625C38.1785 0 31.3091 6.76179 31.3091 15.2005V55.8794C31.3091 61.1806 34.1218 66.1573 38.7194 68.9161L111.687 112.624L132.241 124.958L134.513 126.31L140.625 130.043C144.412 132.369 147.765 135.182 150.632 138.319C154.851 143.079 151.551 150.653 145.169 151.085L113.634 153.087C96.8122 154.169 80.3688 147.948 68.4149 136.101L51.8092 119.548C47.8607 115.654 41.5321 115.654 37.6917 119.548L2.96583 153.898C-0.982751 157.793 -0.982751 164.122 2.96583 167.963L37.5835 202.421C41.5321 206.316 47.8607 206.316 51.7011 202.421L68.3067 185.868C80.2607 173.967 96.65 167.8 113.526 168.882L148.793 171.1C154.472 171.425 158.042 177.592 155.176 182.46C151.768 188.248 146.792 193.333 140.571 197.066L134.351 200.798"
            fill="white"></path>
        <path
            d="M257.285 126.202L251.173 129.934C247.387 132.261 244.033 135.073 241.166 138.211C236.947 142.971 240.247 150.544 246.629 150.977L278.164 152.979C294.986 154.061 311.429 147.84 323.383 135.993L339.989 119.44C343.938 115.545 350.266 115.545 354.107 119.44L388.724 153.898C392.673 157.793 392.673 164.122 388.724 167.963L354.107 202.421C350.158 206.316 343.829 206.316 339.989 202.421L323.383 185.868C311.429 173.967 295.04 167.8 278.164 168.882L242.897 171.1C237.218 171.425 233.648 177.592 236.515 182.46C239.922 188.248 244.899 193.333 251.119 197.066L257.339 200.798L259.611 202.15L279.949 214.376L352.971 258.138C357.568 260.843 360.381 265.819 360.381 271.175V311.854C360.381 320.238 353.512 327.054 345.128 327.054H304.344C298.989 327.054 294.012 324.241 291.254 319.697L218.773 199.662L218.503 199.337L214.878 193.279L212.012 186.896C209.091 179.431 207.522 171.641 207.522 163.527C207.522 155.413 208.983 147.677 212.12 139.888L214.933 133.775L291.2 7.35682C293.958 2.75881 298.935 0 304.29 0H345.074C353.457 0 360.327 6.76179 360.327 15.2005V55.8794C360.327 61.1806 357.514 66.1573 352.917 68.9161L279.949 112.624L259.395 124.958"
            fill="white"></path>
    </g>
</svg>