<svg width="393" height="462" viewBox="0 0 393 462" fill="none" xmlns="http://www.w3.org/2000/svg">
<g opacity="0.3">
<path d="M-1.00098 0.527344C-0.759292 93.2729 66.7041 170.569 156.289 188.394L156.887 188.513V0.527344H234.646V188.515L235.245 188.394C324.407 170.253 392.289 92.9849 392.533 0.527344H470.303C470.121 97.8051 416.921 182.937 337.413 229.808L336.683 230.238L337.413 230.669C416.922 277.54 470.123 362.671 470.305 459.948H392.535C392.293 367.202 324.829 289.906 235.243 272.082L234.646 271.963V460.033H156.887V271.964L156.289 272.082C66.704 289.907 -0.761148 367.203 -1.00293 459.948H-78.7725C-78.5907 362.671 -25.389 277.54 54.1201 230.669L54.8506 230.238L54.1201 229.808C-25.3883 182.937 -78.5888 97.8051 -78.7705 0.527344H-1.00098Z" stroke="url(#paint0_linear_375_10811)"/>
</g>
<defs>
<linearGradient id="paint0_linear_375_10811" x1="195.766" y1="0.0273437" x2="195.766" y2="460.533" gradientUnits="userSpaceOnUse">
<stop/>
<stop offset="1" stop-opacity="0"/>
</linearGradient>
</defs>
</svg>
