<svg width="393" height="462" viewBox="0 0 393 462" fill="none" xmlns="http://www.w3.org/2000/svg">
<g opacity="0.3">
<path d="M-1.00195 0.527344C-0.760269 93.2729 66.7031 170.569 156.288 188.394L156.886 188.513V0.527344H234.645V188.515L235.244 188.394C324.406 170.253 392.288 92.9849 392.532 0.527344H470.302C470.12 97.8051 416.92 182.937 337.412 229.808L336.682 230.238L337.412 230.669C416.921 277.54 470.122 362.671 470.304 459.948H392.534C392.292 367.202 324.828 289.906 235.242 272.082L234.645 271.963V460.033H156.886V271.964L156.288 272.082C66.703 289.907 -0.762124 367.203 -1.00391 459.948H-78.7734C-78.5916 362.671 -25.3899 277.54 54.1191 230.669L54.8496 230.238L54.1191 229.808C-25.3893 182.937 -78.5898 97.8051 -78.7715 0.527344H-1.00195Z" stroke="url(#paint0_linear_189_1736)"/>
</g>
<defs>
<linearGradient id="paint0_linear_189_1736" x1="195.765" y1="0.0273437" x2="195.765" y2="460.533" gradientUnits="userSpaceOnUse">
<stop stop-color="white"/>
<stop offset="1" stop-color="white" stop-opacity="0"/>
</linearGradient>
</defs>
</svg>
