<svg width="152" height="30" viewBox="0 0 152 30" fill="none" xmlns="http://www.w3.org/2000/svg">
<path d="M29.9883 29.6719H35.0001C35.0001 23.3777 31.6055 17.8679 26.5289 14.8369C31.6055 11.8059 35 6.29615 35 0.00195312H29.9882C29.9882 5.95796 25.6752 10.9406 20.0057 12.1088V0.00195312H14.9945V12.1088C9.29827 10.961 5.01194 5.97669 5.01194 0.00195312H0.000111235C0.000111235 6.29615 3.39471 11.8059 8.47136 14.8369C3.39466 17.8679 0 23.3777 0 29.6719H5.01183C5.01183 23.6972 9.29826 18.7129 14.9945 17.565V29.6773H20.0057V17.565C25.7019 18.7128 29.9883 23.6971 29.9883 29.6719Z" fill="white"/>
<path d="M81.4653 30C74.8701 30 70.1592 25.3391 70.1592 18.9834C70.1592 12.6277 74.8701 7.96683 81.4653 7.96683C88.0177 7.96683 92.7285 12.6277 92.7285 18.9834C92.7285 25.3391 88.0177 30 81.4653 30ZM81.4653 25.5086C85.0198 25.5086 87.4181 22.8392 87.4181 18.9834C87.4181 15.1276 85.0198 12.4582 81.4653 12.4582C77.8679 12.4582 75.4696 15.1276 75.4696 18.9834C75.4696 22.8392 77.8679 25.5086 81.4653 25.5086Z" fill="white"/>
<path d="M107.561 12.6701V8.3058H105.791C102.193 8.3058 94.9986 10.4413 94.9986 18.9834V29.661H100.266L100.427 18.9834C100.427 14.9158 101.594 12.6701 104.934 12.6701H107.561Z" fill="white"/>
<path d="M55.0087 2.21365e-05H49.7012V29.6551H55.0087V17.5637C60.67 18.7344 64.9223 23.7007 64.9223 29.6496H69.9307C69.9307 23.3597 66.5384 17.8537 61.4652 14.8248C66.5384 11.7959 69.9306 6.28989 69.9306 0H64.9222C64.9222 5.93013 60.6436 10.8947 55.0087 12.0856V2.21365e-05Z" fill="white"/>
<path d="M109.561 1.86534H114.829V8.3058H122.147V12.6701H114.829V21.9918C114.829 24.1527 115.985 25.2544 117.955 25.2544H122.147V29.661H117.356C112.645 29.661 109.561 26.9493 109.561 22.2036V1.86534Z" fill="white"/>
<path d="M124.392 2.78902C124.396 1.24748 125.661 0 127.219 0C128.783 0 130.049 1.25661 130.045 2.804L130.045 2.91857C130.041 4.46011 128.776 5.70759 127.218 5.70759C125.654 5.70759 124.388 4.45099 124.392 2.9036L124.392 2.78902ZM124.614 29.661V8.3058H129.881V29.661H124.614Z" fill="white"/>
<path d="M137.254 29.6484H132.453C132.453 25.2608 134.651 21.3811 138.017 19.0281C134.651 16.6752 132.454 12.7958 132.454 8.40832H137.254C137.254 11.7788 139.298 14.6769 142.226 15.9555C145.155 14.6769 147.199 11.7788 147.199 8.40832H151.999C151.999 12.7958 149.802 16.6752 146.436 19.0281C149.802 21.3811 151.999 25.2608 151.999 29.6484H147.199C147.199 26.278 145.155 23.3798 142.226 22.1013C139.298 23.3798 137.254 26.278 137.254 29.6484Z" fill="white"/>
</svg>
