<svg width="112" height="22" viewBox="0 0 112 22" fill="none" xmlns="http://www.w3.org/2000/svg">
<path d="M22.0966 21.7589H25.7896C25.7896 17.1432 23.2883 13.1027 19.5476 10.88C23.2882 8.65722 25.7895 4.61672 25.7895 0.000976562H22.0966C22.0966 4.36872 18.9185 8.02266 14.741 8.87935V0.000976562H11.0486V8.87935C6.85136 8.03758 3.69301 4.38245 3.69301 0.000976562H8.1963e-05C8.1963e-05 4.61672 2.50136 8.65722 6.24206 10.88C2.50133 13.1027 0 17.1432 0 21.7589H3.69292C3.69292 17.3775 6.85135 13.7223 11.0486 12.8806V21.7629H14.741V12.8805C18.9382 13.7223 22.0966 17.3774 22.0966 21.7589Z" fill="black"/>
<path d="M60.0272 22C55.1676 22 51.6964 18.582 51.6964 13.9212C51.6964 9.26031 55.1676 5.84234 60.0272 5.84234C64.8553 5.84234 68.3264 9.26031 68.3264 13.9212C68.3264 18.582 64.8553 22 60.0272 22ZM60.0272 18.7063C62.6464 18.7063 64.4135 16.7488 64.4135 13.9212C64.4135 11.0936 62.6464 9.13602 60.0272 9.13602C57.3765 9.13602 55.6094 11.0936 55.6094 13.9212C55.6094 16.7488 57.3765 18.7063 60.0272 18.7063Z" fill="black"/>
<path d="M79.2553 9.29138V6.09092H77.9513C75.3006 6.09092 69.9991 7.65697 69.9991 13.9212V21.7514H73.8805L73.9989 13.9212C73.9989 10.9382 74.8588 9.29138 77.3201 9.29138H79.2553Z" fill="black"/>
<path d="M40.5329 1.62334e-05H36.6221V21.7471H40.5329V12.8801C44.7044 13.7386 47.8376 17.3805 47.8376 21.7431H51.528C51.528 17.1305 49.0285 13.0927 45.2903 10.8715C49.0284 8.65032 51.528 4.61258 51.528 0H47.8376C47.8376 4.34876 44.6849 7.98943 40.5329 8.86278V1.62334e-05Z" fill="black"/>
<path d="M80.7296 1.36791H84.611V6.09092H90.0033V9.29138H84.611V16.1273C84.611 17.712 85.463 18.5199 86.9145 18.5199H90.0033V21.7514H86.4728C83.0016 21.7514 80.7296 19.7628 80.7296 16.2827V1.36791Z" fill="black"/>
<path d="M91.6575 2.04528C91.6606 0.914819 92.5921 0 93.7402 0C94.8926 0 95.826 0.921513 95.8229 2.05626L95.8226 2.14029C95.8196 3.27075 94.888 4.18557 93.74 4.18557C92.5875 4.18557 91.6542 3.26406 91.6573 2.1293L91.6575 2.04528ZM91.8208 21.7514V6.09092H95.7022V21.7514H91.8208Z" fill="black"/>
<path d="M101.134 21.7422H97.5973C97.5973 18.5246 99.2168 15.6794 101.697 13.954C99.2169 12.2285 97.5975 9.38358 97.5975 6.1661H101.135C101.135 8.63777 102.641 10.7631 104.799 11.7007C106.956 10.7631 108.462 8.63777 108.462 6.1661H112C112 9.38358 110.38 12.2285 107.9 13.954C110.38 15.6794 112 18.5246 112 21.7422H108.463C108.463 19.2705 106.956 17.1452 104.799 16.2076C102.641 17.1452 101.134 19.2705 101.134 21.7422Z" fill="black"/>
</svg>
