<svg width="35" height="30" viewBox="0 0 35 30" fill="none" xmlns="http://www.w3.org/2000/svg">
<path d="M29.9883 29.6719H35.0001C35.0001 23.3777 31.6055 17.8679 26.5289 14.8369C31.6055 11.8059 35 6.29615 35 0.00195312H29.9882C29.9882 5.95796 25.6752 10.9406 20.0057 12.1088V0.00195312H14.9945V12.1088C9.29827 10.961 5.01194 5.97669 5.01194 0.00195312H0.000111235C0.000111235 6.29615 3.39471 11.8059 8.47136 14.8369C3.39466 17.8679 0 23.3777 0 29.6719H5.01183C5.01183 23.6972 9.29826 18.7129 14.9945 17.565V29.6773H20.0057V17.565C25.7019 18.7128 29.9883 23.6971 29.9883 29.6719Z" fill="white"/>
</svg>
