<svg width="159" height="158" viewBox="0 0 159 158" fill="none" xmlns="http://www.w3.org/2000/svg">
<path d="M64.4348 97.1628L106.989 64.4024C109.075 62.7964 112.057 63.4228 113.051 65.9176C118.283 79.074 115.945 94.8848 105.536 105.74C95.127 116.596 80.6438 118.976 67.4059 113.554L52.9446 120.537C73.6863 135.322 98.8734 131.666 114.613 115.24C127.097 102.22 130.964 84.4732 127.348 68.4692L127.381 68.5032C122.138 44.9924 128.67 35.5948 142.05 16.3783C142.366 15.9227 142.683 15.467 143 15L125.393 33.3622V33.3052L64.4241 97.1744" fill="black"/>
<path d="M55.6535 105.125C40.7661 90.294 43.3328 67.3412 56.0356 54.1052C65.4288 44.3089 80.8187 40.3107 94.2531 46.1884L108.682 39.2399C106.082 37.2807 102.751 35.1734 98.928 33.6925C81.6489 26.277 60.9616 29.9677 46.9154 44.605C33.4043 58.6956 29.1555 80.3612 36.4517 98.8488C41.902 112.666 32.9674 122.439 23.9673 132.304C20.778 135.801 17.5777 139.298 15 143L55.6424 105.136" fill="black"/>
</svg>
