<svg width="159" height="158" viewBox="0 0 159 158" fill="none" xmlns="http://www.w3.org/2000/svg">
<g clip-path="url(#clip0_1_42)">
<path fill-rule="evenodd" clip-rule="evenodd" d="M20.6107 105.219L71.4854 118.829C71.4169 122.447 71.5237 126.065 71.8054 129.672L103.571 138.168C94.1492 142.057 83.9351 143.638 73.7787 142.781L72.8187 142.696L72.584 142.675L72.136 142.627L71.6347 142.573C71.3554 142.54 71.0762 142.504 70.7974 142.467L70.2267 142.392L69.64 142.307C69.0699 142.224 68.501 142.133 67.9334 142.035L67.7094 141.992L67.3094 141.923L66.7387 141.816L66.3654 141.736L65.8694 141.635L65.4694 141.549L64.9627 141.443L64.4454 141.32L63.944 141.203L63.5814 141.112L63.112 140.995L62.632 140.867L62.1254 140.733L61.688 140.611L61.1067 140.451L60.776 140.344L60.328 140.211L59.832 140.061L59.272 139.88L58.9627 139.779L58.536 139.64L58.056 139.475L57.704 139.347C57.6257 139.32 57.5475 139.294 57.4694 139.267L57.1067 139.133L56.568 138.936L56.264 138.819L55.8374 138.659L55.3734 138.472L54.904 138.285L54.4827 138.115L53.976 137.901L53.64 137.752L53.304 137.608C53.231 137.576 53.1581 137.544 53.0854 137.512L52.7334 137.352L52.184 137.101L51.9067 136.973L51.3947 136.728L51.064 136.568L50.616 136.355L50.1574 136.12L49.6614 135.869L49.384 135.725L48.8347 135.432L48.5307 135.272L48.2214 135.101C48.1394 135.055 48.0576 135.009 47.976 134.963L47.4747 134.68L47.1547 134.499L46.8827 134.339L46.4987 134.12L46.0614 133.853L45.5654 133.555L45.288 133.384L44.84 133.101L44.5147 132.893L44.0934 132.627L43.72 132.376L43.4374 132.189C43.3411 132.126 43.2451 132.062 43.1494 131.997L42.9147 131.837L42.68 131.677C42.6087 131.628 42.5376 131.578 42.4667 131.528L42.1627 131.315L41.7574 131.027L41.3894 130.76L40.9947 130.472L40.696 130.248L40.2907 129.944L39.8854 129.629L39.4267 129.272L39.1867 129.085L38.8454 128.808L38.4507 128.488L37.976 128.099L37.7307 127.891L37.4854 127.683C37.4087 127.617 37.3322 127.551 37.256 127.485L37.016 127.272L36.6907 126.989L36.3174 126.659L35.9547 126.339L35.624 126.029L35.2667 125.699L34.984 125.432L34.5147 124.984C34.3378 124.812 34.1618 124.64 33.9867 124.467L33.832 124.317L33.6134 124.093L33.2454 123.72L32.9787 123.448L32.712 123.165C32.4073 122.853 32.1086 122.535 31.816 122.211L31.3894 121.741L31.0587 121.368L30.68 120.941L30.456 120.68L30.1734 120.349L29.864 119.987L29.6187 119.688C29.5705 119.629 29.5225 119.571 29.4747 119.512L29.2347 119.219L28.8827 118.781L28.664 118.504L28.3974 118.163L28.2907 118.029C25.2391 114.074 22.6615 109.774 20.6107 105.219ZM15.1707 74.3173L75.72 90.5147C74.7063 94.0454 73.8715 97.6251 73.2187 101.24L130.909 116.675C128.043 120.599 124.742 124.186 121.069 127.368L18.504 99.9227L18.4187 99.6773L18.232 99.1227C18.1413 98.8513 18.0524 98.5793 17.9654 98.3067L17.928 98.184C17.5175 96.8789 17.1493 95.5609 16.824 94.232L16.664 93.56L16.568 93.1333L16.456 92.616L16.36 92.184L16.264 91.704L16.1734 91.256L16.0774 90.7547C15.9387 90.0027 15.8107 89.2453 15.6987 88.4827L15.608 87.8533L15.5494 87.4107L15.48 86.8667C15.4443 86.5807 15.4105 86.2945 15.3787 86.008L15.352 85.7573C14.9536 81.9569 14.8929 78.1285 15.1707 74.3173ZM23.6667 46.8507L87.3894 63.896C85.4267 67.1227 83.6294 70.4613 82.0027 73.896L142.243 90.0133C141.485 94.3867 140.28 98.6107 138.68 102.627L77.08 86.1467L15.6614 69.72L15.7414 69.1867L15.784 68.9253L15.8374 68.568L15.9174 68.104L16.0134 67.5813C16.152 66.792 16.312 66.008 16.4827 65.224L16.632 64.5627L16.7387 64.1093L16.8667 63.592C16.984 63.112 17.1067 62.632 17.24 62.1627L17.3894 61.6187L17.512 61.176L17.672 60.6427L17.8054 60.2053L17.9654 59.6933L18.104 59.256L18.2694 58.7493C19.6505 54.6065 21.4556 50.6174 23.656 46.8453L23.6667 46.8507ZM47.3574 23.384L107.544 39.48C104.368 42.3627 101.362 45.4274 98.5414 48.6587L140.264 59.8213C141.688 64.3653 142.621 69.1227 143 74.0347L26.232 42.8027L26.472 42.456L26.616 42.2427L26.8294 41.9493L27.0747 41.6027L27.368 41.1973L27.656 40.8133L27.9974 40.3547L28.264 40.008L28.568 39.6187L28.8614 39.2453L29.1814 38.8507L29.4747 38.4827L29.8214 38.072L30.1094 37.72L30.4614 37.3093L30.744 36.9893L31.128 36.552L31.4107 36.232L31.768 35.8373L32.056 35.528L32.4454 35.112L32.7547 34.792L33.0907 34.4347L33.9867 33.528L34.52 33.0053L34.8347 32.7067L35.24 32.328C38.9157 28.8833 42.9826 25.8815 47.3574 23.384ZM79.0907 15H79.608L80.0454 15.0053L80.4134 15.0107L80.7014 15.0213L81.064 15.032L81.3094 15.0373L81.7147 15.0533L81.9654 15.064L82.2854 15.08L82.5734 15.0907L83.0374 15.1173L83.5974 15.1547L84.3654 15.2133L84.8347 15.2507L85.0694 15.272L85.48 15.3147L85.9174 15.3573L86.168 15.384L86.712 15.448L86.9787 15.48L87.5547 15.5547L87.9867 15.608L88.2107 15.64L88.5574 15.6933L89.6614 15.864L90.0347 15.928L90.3814 15.9867L91.128 16.1253L91.6187 16.2213L92.2054 16.3387L92.4507 16.392L92.8507 16.4773L93.0694 16.5307L93.4 16.6L93.624 16.6533L93.9707 16.7333L94.232 16.7973L94.6107 16.888L95.1227 17.016L95.72 17.176L96.3227 17.336L96.9254 17.5067L97.192 17.5867L97.5654 17.6933L97.9814 17.8213L98.3707 17.944L98.6374 18.0293L98.904 18.1147L99.3094 18.248L99.8374 18.424L100.381 18.616L100.637 18.7067L100.979 18.8293L101.475 19.0107L102.061 19.2293L102.68 19.4693L103.213 19.6827L103.464 19.7893L103.784 19.9173L104.003 20.0133L104.339 20.152L104.552 20.248L104.856 20.3813L105.443 20.6373L105.976 20.8827L106.371 21.0693L106.771 21.2613L107.091 21.4107L107.581 21.656L108.067 21.896L108.611 22.1733L108.893 22.3227L109.155 22.4613L109.4 22.5893L109.72 22.7653L109.939 22.8827L110.216 23.0373L110.685 23.304L111.251 23.624L111.715 23.896L112.019 24.0773L112.301 24.248L112.813 24.5627L113.283 24.856L113.805 25.1867L113.997 25.3147L114.339 25.5333L114.787 25.832L115 25.976L115.331 26.2L115.661 26.4293L115.784 26.52C116.072 26.7173 116.36 26.92 116.643 27.128L117.085 27.448L117.432 27.704L117.731 27.9333L118.189 28.28L118.627 28.6213L118.84 28.7813L119.107 29L119.565 29.368L119.987 29.7147L120.44 30.0933C124.237 33.2933 127.656 36.936 130.621 40.9253L53.5174 20.3013L53.848 20.1573L54.1947 20.008L54.6267 19.8267L55.0854 19.64C55.688 19.4 56.296 19.16 56.904 18.9413L57.416 18.7547L57.912 18.5787L58.36 18.4187L58.872 18.2533C59.336 18.0933 59.8107 17.944 60.28 17.8L60.7654 17.656L61.224 17.5227L61.768 17.3627L62.2214 17.24L62.7547 17.1013L63.2134 16.9733L63.6934 16.8507L64.1787 16.7333L64.6854 16.616L65.1654 16.5093L65.688 16.3973L66.1734 16.2907L66.68 16.1947L67.1707 16.0987L67.704 16.0027L68.1894 15.9173L68.712 15.8267L69.2027 15.752L69.72 15.672L70.2107 15.6027L70.7547 15.5333L71.24 15.4693L71.8 15.4053L72.28 15.352L72.84 15.2987C73.336 15.2453 73.832 15.2027 74.3334 15.1707L74.8987 15.128L75.3787 15.1013L75.9654 15.0693L76.4614 15.048L76.9947 15.0267L77.512 15.016L78.04 15.0053L79.0907 14.9947V15Z" fill="black"/>
</g>
<defs>
<clipPath id="clip0_1_42">
<rect width="128" height="128" fill="white" transform="translate(15 15)"/>
</clipPath>
</defs>
</svg>
