<svg width="159" height="158" viewBox="0 0 159 158" fill="none" xmlns="http://www.w3.org/2000/svg">
<g clip-path="url(#clip0_1_10)">
<path d="M64.0937 61.5917V49.4317C64.0937 48.4075 64.4745 47.639 65.3621 47.1276L89.5925 33.0478C92.891 31.1279 96.8236 30.2323 100.882 30.2323C116.106 30.2323 125.747 42.1366 125.747 54.8081C125.747 55.7038 125.747 56.728 125.62 57.7521L100.502 42.9038C98.9798 42.0082 97.457 42.0082 95.9347 42.9038L64.0937 61.5917ZM120.672 108.953V79.8955C120.672 78.103 119.91 76.8231 118.388 75.9274L86.5474 57.2395L96.9497 51.2231C97.8374 50.7117 98.5992 50.7117 99.4867 51.2231L123.717 65.303C130.695 69.3995 135.387 78.103 135.387 86.5506C135.387 96.2782 129.68 105.238 120.672 108.951V108.953ZM56.6091 83.3521L46.2069 77.2085C45.3192 76.6971 44.9385 75.9287 44.9385 74.9045V46.7447C44.9385 33.049 55.3407 22.6803 69.4222 22.6803C74.7507 22.6803 79.6971 24.4729 83.8845 27.6726L58.8938 42.2651C57.3719 43.1608 56.6104 44.4407 56.6104 46.2333V83.3533L56.6091 83.3521ZM78.9998 96.4079L64.0936 87.9602V70.0407L78.9998 61.593L93.9047 70.0407V87.9602L78.9998 96.4079ZM88.5775 135.321C83.249 135.321 78.3026 133.528 74.1152 130.329L99.1055 115.735C100.628 114.84 101.389 113.56 101.389 111.768V74.6475L111.919 80.7911C112.807 81.3026 113.187 82.071 113.187 83.0952V111.255C113.187 124.95 102.657 135.32 88.5775 135.32V135.321ZM58.5118 106.777L34.2814 92.6968C27.3037 88.6001 22.6107 79.8968 22.6107 71.4491C22.6107 61.593 28.4462 52.7611 37.4526 49.0488V78.2327C37.4526 80.0252 38.2141 81.3051 39.736 82.2008L71.451 100.76L61.0488 106.777C60.1611 107.288 59.3994 107.288 58.5118 106.777ZM57.1172 127.769C42.7822 127.769 32.2526 116.888 32.2526 103.448C32.2526 102.424 32.3799 101.4 32.5061 100.376L57.4968 114.968C59.0187 115.864 60.5418 115.864 62.0637 114.968L93.9048 96.4092V108.569C93.9048 109.594 93.524 110.361 92.6363 110.873L68.406 124.953C65.1076 126.873 61.1748 127.769 57.116 127.769L57.1172 127.769ZM88.5775 143C103.927 143 116.739 131.992 119.658 117.4C133.866 113.687 143 100.247 143 86.5519C143 77.5916 139.194 68.8882 132.344 62.616C132.978 59.9278 133.359 57.2395 133.359 54.5525C133.359 36.2489 118.643 22.5519 101.644 22.5519C98.2197 22.5519 94.921 23.0634 91.6225 24.2161C85.9132 18.5838 78.0479 15 69.4222 15C54.0723 15 41.2604 26.0075 38.3415 40.5999C24.1339 44.3122 15 57.7522 15 71.4478C15 80.4082 18.8053 89.1115 25.6557 95.3837C25.0214 98.0719 24.6407 100.76 24.6407 103.447C24.6407 121.75 39.3563 135.447 56.3557 135.447C59.7802 135.447 63.0787 134.937 66.3771 133.784C72.0851 139.416 79.9505 143 88.5775 143Z" fill="black"/>
</g>
<defs>
<clipPath id="clip0_1_10">
<rect width="128" height="128" fill="white" transform="translate(15 15)"/>
</clipPath>
</defs>
</svg>
